HIERARCHY
ROOT Hips
{
	OFFSET 0.0000 0.0000 0.0000
	CHANNELS 6 Xposition Yposition Zposition Zrotation Xrotation Yrotation
	JOINT Spine1
	{
		OFFSET -0.0137 5.0038 -0.0537
		CHANNELS 3 Zrotation Xrotation Yrotation
		JOINT Spine2
		{
			OFFSET -0.0000 7.1253 -0.0298
			CHANNELS 3 Zrotation Xrotation Yrotation
			JOINT Chest
			{
				OFFSET -0.0000 7.5501 -0.8160
				CHANNELS 3 Zrotation Xrotation Yrotation
				JOINT Neck1
				{
					OFFSET -0.1817 26.3113 -0.5533
					CHANNELS 3 Zrotation Xrotation Yrotation
					JOINT Neck2
					{
						OFFSET -0.0000 7.7094 2.3026
						CHANNELS 3 Zrotation Xrotation Yrotation
						JOINT Head
						{
							OFFSET -0.0000 6.1289 1.9537
							CHANNELS 3 Zrotation Xrotation Yrotation
							JOINT Jaw
							{
								OFFSET 0.0026 0.4756 3.0949
								CHANNELS 3 Zrotation Xrotation Yrotation
								End Site
								{
									OFFSET 0.0 1.0 0.0
								}
							}
							JOINT LeftEye
							{
								OFFSET 3.2064 5.3802 7.5869
								CHANNELS 3 Zrotation Xrotation Yrotation
								End Site
								{
									OFFSET 0.0 1.0 0.0
								}
							}
							JOINT RightEye
							{
								OFFSET -3.2224 5.3619 7.5582
								CHANNELS 3 Zrotation Xrotation Yrotation
								End Site
								{
									OFFSET 0.0 1.0 0.0
								}
							}
						}
					}
				}
				JOINT LeftShoulder
				{
					OFFSET 1.6217 23.2372 5.1134
					CHANNELS 3 Zrotation Xrotation Yrotation
					JOINT LeftArm
					{
						OFFSET 14.9198 0.0000 -5.5023
						CHANNELS 3 Zrotation Xrotation Yrotation
						JOINT LeftForeArm
						{
							OFFSET 28.7393 0.0000 -0.0026
							CHANNELS 3 Zrotation Xrotation Yrotation
							JOINT LeftHand
							{
								OFFSET 27.0940 -0.0000 0.0026
								CHANNELS 3 Zrotation Xrotation Yrotation
								JOINT LeftHandThumbEnd
								{
									OFFSET 12.2686 -3.2202 4.8331
									CHANNELS 3 Zrotation Xrotation Yrotation
									End Site
									{
										OFFSET 0.0 1.0 0.0
									}
								}
								JOINT LeftHandMiddleEnd
								{
									OFFSET 19.0120 -0.3129 -0.0340
									CHANNELS 3 Zrotation Xrotation Yrotation
									End Site
									{
										OFFSET 0.0 1.0 0.0
									}
								}
							}
						}
					}
				}
				JOINT RightShoulder
				{
					OFFSET -1.3801 23.1803 5.2142
					CHANNELS 3 Zrotation Xrotation Yrotation
					JOINT RightArm
					{
						OFFSET -15.0372 0.0000 -5.5456
						CHANNELS 3 Zrotation Xrotation Yrotation
						JOINT RightForeArm
						{
							OFFSET -28.7366 0.0000 -0.0026
							CHANNELS 3 Zrotation Xrotation Yrotation
							JOINT RightHand
							{
								OFFSET -27.1336 -0.0000 0.0026
								CHANNELS 3 Zrotation Xrotation Yrotation
								JOINT RightHandThumbEnd
								{
									OFFSET -12.2642 -3.2115 4.8040
									CHANNELS 3 Zrotation Xrotation Yrotation
									End Site
									{
										OFFSET 0.0 1.0 0.0
									}
								}
								JOINT RightHandMiddleEnd
								{
									OFFSET -19.0006 -0.3066 -0.0316
									CHANNELS 3 Zrotation Xrotation Yrotation
									End Site
									{
										OFFSET 0.0 1.0 0.0
									}
								}
							}
						}
					}
				}
			}
		}
	}
	JOINT LeftLeg
	{
		OFFSET 10.0432 -8.4345 2.5957
		CHANNELS 3 Zrotation Xrotation Yrotation
		JOINT LeftShin
		{
			OFFSET -0.0000 -43.2218 -0.8029
			CHANNELS 3 Zrotation Xrotation Yrotation
			JOINT LeftFoot
			{
				OFFSET 0.0000 -42.1551 -3.4815
				CHANNELS 3 Zrotation Xrotation Yrotation
				JOINT LeftToeBase
				{
					OFFSET 0.0000 -5.0595 13.2315
					CHANNELS 3 Zrotation Xrotation Yrotation
					End Site
					{
						OFFSET 0.0 1.0 0.0
					}
				}
			}
		}
	}
	JOINT RightLeg
	{
		OFFSET -10.0473 -8.2953 2.6203
		CHANNELS 3 Zrotation Xrotation Yrotation
		JOINT RightShin
		{
			OFFSET 0.0000 -43.3622 -0.8056
			CHANNELS 3 Zrotation Xrotation Yrotation
			JOINT RightFoot
			{
				OFFSET 0.0000 -42.1174 -3.4784
				CHANNELS 3 Zrotation Xrotation Yrotation
				JOINT RightToeBase
				{
					OFFSET -0.0000 -5.0796 13.2842
					CHANNELS 3 Zrotation Xrotation Yrotation
					End Site
					{
						OFFSET 0.0 1.0 0.0
					}
				}
			}
		}
	}
}
MOTION
Frames: 10
Frame Time: 0.033333
1.7029 91.6862 6.3126 -3.4182 11.1238 -0.9731 0.4026 3.8436 -0.6456 -0.1191 -2.7816 -2.1488 2.9810 12.9302 -3.8980 3.9177 -0.0936 2.2678 -0.5296 -3.6384 1.9198 -4.3813 -18.2714 5.4489 0.0403 0.0931 -0.1697 0.7877 -10.3739 -4.0474 -0.7044 -10.4104 3.6948 13.5082 8.9423 -16.6036 -6.8323 -37.1281 -45.0876 2.2910 3.1110 -59.6506 42.4742 41.3766 30.8294 -16.1596 10.3736 15.0161 -60.7036 1.4420 1.7661 -12.4187 3.3909 13.0589 22.5629 -42.5234 42.0151 -0.4891 1.3412 86.6469 -38.8177 45.8887 -32.7194 16.3240 7.5568 -16.8150 50.4106 -4.0592 -5.8189 4.1076 -28.9781 11.8636 -0.0137 48.5212 -0.1236 -3.7601 -30.7279 0.4011 1.6220 -2.0217 -1.7907 8.7095 -45.5221 -18.5846 0.0158 43.3666 -0.1536 1.8040 -8.0465 -5.0513 -1.3958 -0.7701 1.1795
1.8546 91.7242 5.2052 -3.5946 10.5723 0.5431 0.2303 4.0006 -0.6845 -0.1439 -2.8044 -2.1671 2.6177 12.9682 -3.9034 4.6405 0.1212 1.9828 -0.6255 -3.6193 1.7825 -3.3728 -17.5534 4.5911 0.0313 0.0755 -0.1121 0.7856 -10.3958 -3.9922 -0.7195 -10.4134 3.7541 14.1546 9.0987 -16.8495 -4.0234 -36.0722 -50.9501 2.5647 2.8985 -57.7835 40.0502 41.9393 29.1794 -16.3709 10.3354 14.9638 -61.0404 1.3912 1.7091 -12.5933 3.2860 13.0226 23.3463 -44.0812 39.8442 -0.7899 0.8991 86.7137 -37.0770 44.9150 -31.9850 16.2824 7.4471 -16.7468 50.3179 -4.0485 -5.7490 4.3814 -29.7301 10.5056 -0.0427 49.0412 -0.1787 -3.2802 -30.1212 -0.1561 1.6310 -1.8327 -1.8231 8.4927 -45.0390 -18.9743 -0.0558 42.4010 -0.2247 2.1589 -6.8071 -6.1389 -1.4139 -0.7115 1.1438
2.0540 91.7677 3.8905 -3.6346 10.2373 2.0163 -0.0557 3.9980 -0.7084 -0.2114 -2.8382 -2.0918 2.2849 12.9768 -3.8405 5.3174 0.4781 1.7019 -0.7015 -3.6255 1.6261 -2.3422 -16.9470 3.7360 0.0294 0.0733 -0.0845 0.7854 -10.4109 -3.9634 -0.7224 -10.4059 3.7791 14.5707 9.1040 -17.1991 -1.9281 -35.0800 -56.0617 2.6724 2.5852 -56.3427 37.7575 42.3159 27.5990 -16.5841 10.3063 14.9367 -61.3670 1.4249 1.7776 -12.7214 3.1932 13.2085 24.1288 -45.7184 37.3808 -0.8729 0.4530 86.5785 -36.0475 43.9339 -31.7942 16.3035 7.3568 -16.6506 50.3148 -3.9692 -5.7057 4.4022 -30.6231 9.2459 -0.0584 49.3425 -0.2048 -2.7703 -29.3180 -0.5294 1.6462 -1.6389 -1.8489 8.2014 -44.7982 -19.3818 -0.1007 41.3435 -0.2751 2.4202 -5.5548 -7.0747 -1.4237 -0.6678 1.1243
2.2541 91.8615 2.5588 -3.6670 10.0694 3.1778 -0.3450 3.9509 -0.7040 -0.2964 -2.8837 -1.9146 2.0014 13.0180 -3.7243 5.8073 0.8829 1.5102 -0.7364 -3.6426 1.4821 -1.3846 -16.6226 2.9331 0.0299 0.0753 -0.0756 0.7862 -10.4343 -3.9507 -0.7216 -10.4155 3.7826 14.7814 9.0190 -17.4134 -0.4180 -34.5007 -60.1329 2.4672 2.2437 -55.3333 36.4064 42.7478 26.7925 -16.6510 10.3732 14.9370 -61.6280 1.4948 1.8246 -12.8867 3.1353 13.5589 24.4266 -47.2430 35.3553 -1.0120 0.2082 86.1096 -35.7313 43.2126 -32.1699 16.2695 7.3037 -16.6023 50.2984 -3.9173 -5.6842 4.2860 -31.6054 8.4312 -0.0652 49.4625 -0.2276 -2.2313 -28.3842 -0.9163 1.6544 -1.5448 -1.8747 7.9614 -44.6473 -19.6271 -0.1317 39.9898 -0.3078 2.5586 -4.1332 -7.8278 -1.4230 -0.7662 1.1281
2.4575 92.0419 1.2387 -3.6827 10.0502 4.0186 -0.6077 3.9163 -0.6930 -0.3863 -2.9132 -1.6672 1.6693 13.0361 -3.5584 6.1912 1.2274 1.3630 -0.7573 -3.6490 1.3768 -0.4551 -16.4794 2.1701 0.0275 0.0795 -0.0586 0.7798 -10.4371 -3.9265 -0.7196 -10.4120 3.7929 14.8000 8.8680 -17.5070 0.6301 -33.9335 -63.3136 2.3233 2.0902 -54.4474 35.2742 42.6195 26.1227 -16.6910 10.4698 14.9824 -61.8142 1.5781 1.8867 -13.1968 2.9746 14.0763 24.3653 -48.6265 33.7495 -1.1674 0.2576 85.2555 -35.5827 42.4790 -32.5135 16.2556 7.2171 -16.5548 50.2781 -3.8969 -5.6704 3.9977 -32.6292 8.1614 -0.0800 49.2928 -0.2631 -1.6618 -27.2948 -1.4310 1.6622 -1.5332 -1.8913 7.7847 -44.4796 -19.7094 -0.1520 38.1229 -0.3226 2.6379 -2.4746 -8.4343 -1.4206 -0.9263 1.1546
2.6419 92.3058 -0.1895 -3.6834 10.2415 4.5246 -0.8228 3.9086 -0.6716 -0.4696 -2.8869 -1.4325 1.2764 12.9727 -3.3397 6.4585 1.4432 1.2476 -0.7627 -3.6724 1.2680 0.4529 -16.3539 1.4833 0.0229 0.0863 -0.0224 0.7675 -10.4256 -3.8805 -0.7161 -10.4072 3.8213 14.4523 8.6839 -17.4429 1.4583 -33.3556 -65.7826 2.2139 2.0261 -53.6133 34.2941 42.1358 25.5060 -16.6731 10.5087 15.0457 -61.7908 1.6506 2.0101 -13.6333 2.7607 14.7673 23.4866 -49.8220 32.8652 -1.4749 0.4892 84.0065 -35.7874 41.8134 -32.9355 16.2850 7.1190 -16.5556 50.3819 -3.9233 -5.7011 3.5542 -33.7151 8.4039 -0.1096 48.7638 -0.2921 -1.1059 -26.0215 -2.0485 1.6710 -1.5026 -1.9070 7.6452 -44.3317 -19.5669 -0.1579 35.7592 -0.3268 2.7697 -0.6249 -8.7741 -1.4190 -1.2033 1.2058
2.8462 92.6490 -1.7969 -3.7076 10.6904 4.5808 -0.9391 3.9067 -0.6562 -0.5149 -2.8120 -1.1827 0.8385 12.8342 -3.0702 6.5904 1.3520 1.2692 -0.8547 -3.6321 1.3502 1.3355 -16.3063 0.7778 0.0159 0.0933 0.0322 0.7560 -10.4104 -3.8167 -0.7191 -10.3980 3.8678 13.7530 8.5379 -17.2887 2.1980 -32.7148 -67.3519 1.8886 2.0049 -52.9282 33.8786 41.2821 25.3473 -16.7936 10.5750 15.0609 -61.7292 1.7886 1.9091 -14.0504 2.5298 15.5647 21.3904 -51.3585 32.9175 -1.5404 0.9372 82.3086 -36.0753 40.6795 -33.0361 16.2449 7.0121 -16.5554 50.4415 -3.8978 -5.7107 2.8974 -34.9186 9.3552 -0.1234 47.8616 -0.3134 -0.5546 -24.4679 -2.8752 1.6665 -1.5015 -1.9130 7.7202 -44.3187 -19.6219 -0.0301 32.9110 -0.0936 3.5727 1.2798 -8.6836 -1.4290 -1.6283 1.1451
3.0762 92.9616 -3.5300 -3.7021 11.4590 4.2023 -1.0070 3.9464 -0.5620 -0.5618 -2.7735 -0.8710 0.5377 12.6793 -2.7897 6.3764 0.9381 1.3685 -0.8811 -3.7093 1.1935 2.0359 -16.1811 0.1749 0.0142 0.0928 0.0265 0.7345 -10.4112 -3.8138 -0.7014 -10.3987 3.8542 12.7466 8.0711 -17.0675 2.2954 -31.9856 -67.6657 1.6751 2.0311 -52.8960 33.8053 40.0492 24.9935 -16.5711 10.7492 15.3055 -61.5864 1.7863 1.9271 -14.6686 2.3702 16.5303 17.1724 -52.6290 34.6644 -1.6389 1.1297 80.0203 -37.4756 39.4987 -33.7596 16.3225 7.0183 -16.6562 50.5692 -3.9413 -5.8050 1.9642 -36.5117 10.8340 -0.0825 47.0202 -0.2065 -0.2727 -22.8978 -3.5339 1.6610 -1.3338 -1.8956 7.9178 -44.6778 -19.9579 0.0410 30.3315 -0.0444 4.4201 2.0701 -7.7705 -1.4243 -1.9839 1.1701
3.2915 93.2312 -5.4101 -3.6245 12.4620 3.5426 -1.0233 4.0191 -0.4703 -0.5562 -2.7448 -0.5054 0.2320 12.4922 -2.5597 6.0360 0.2238 1.4982 -0.8415 -3.7436 0.9952 2.3879 -16.2697 -0.1179 0.0132 0.0897 0.0119 0.7235 -10.4357 -3.8272 -0.6932 -10.4210 3.8393 11.7509 7.5677 -16.6549 1.8227 -31.7477 -66.7918 1.5148 2.0219 -53.4979 34.3054 38.7174 24.9046 -16.4633 10.9397 15.5599 -61.5411 1.7978 1.9011 -15.3988 2.1961 17.5699 11.1754 -53.3530 37.8549 -1.5721 1.1653 77.2455 -38.6543 37.8482 -34.1071 16.3647 7.1023 -16.7022 50.6659 -3.9398 -5.8375 0.7416 -38.3115 12.6281 -0.0285 46.1703 -0.0745 -0.1818 -21.2574 -4.0068 1.6522 -1.2689 -1.8773 8.5659 -45.5610 -21.2240 0.0714 28.9148 -0.0501 5.8041 1.0939 -7.3857 -1.4145 -2.2901 1.1645
3.4613 93.4292 -7.4039 -3.5487 13.6006 2.6349 -1.0015 4.0923 -0.3796 -0.5288 -2.6848 -0.0892 -0.0561 12.2868 -2.3052 5.6844 -0.6477 1.5913 -0.7935 -3.7678 0.7461 2.5260 -16.5507 -0.2480 0.0152 0.0780 -0.0108 0.7083 -10.4644 -3.8490 -0.6751 -10.4456 3.8143 10.9039 7.0035 -16.1436 0.5251 -32.2830 -64.5611 1.3467 1.9072 -54.6099 35.3492 37.4279 25.0065 -16.3753 11.1451 15.7612 -61.5920 1.8342 1.8388 -16.3036 2.0633 18.6706 4.2444 -53.1065 41.7784 -1.5616 1.3087 74.1133 -39.4331 35.7780 -34.3344 16.3600 7.2403 -16.7403 50.8446 -3.9454 -5.8441 -0.6557 -40.2652 14.6534 0.0455 45.3637 0.0939 -0.2713 -19.6168 -4.3485 1.6432 -1.2035 -1.8562 9.5950 -46.9024 -23.1635 0.0407 29.1519 -0.1134 7.9351 -1.1961 -7.6949 -1.3947 -2.6425 1.1524
